<svg xmlns="http://www.w3.org/2000/svg" version="1.1" xmlns:xlink="http://www.w3.org/1999/xlink" xmlns:svgjs="http://svgjs.dev/svgjs" width="2000" height="2250" viewBox="0 0 2000 2250"><g transform="matrix(1,0,0,1,0,0)"><svg viewBox="0 0 320 360" data-background-color="#ffffff" preserveAspectRatio="xMidYMid meet" height="2250" width="2000" xmlns="http://www.w3.org/2000/svg" xmlns:xlink="http://www.w3.org/1999/xlink"><g id="tight-bounds" transform="matrix(1,0,0,1,0,0)"><svg viewBox="0 0 320 360" height="360" width="320"><g><svg></svg></g><g><svg viewBox="0 0 320 360" height="360" width="320"><g><path d="M160 42.18c72.417 0 131.943 56.114 137.63 127.014h22.37c-1.137-17.82-5.308-34.882-12.133-51.185-7.962-18.957-19.716-36.398-34.502-50.805-14.787-14.787-31.848-26.161-50.806-34.503-20.095-8.341-40.948-12.891-62.559-12.891-21.611 0-42.464 4.171-62.559 12.512-18.957 7.962-36.398 19.716-50.806 34.503-14.787 14.787-26.161 31.848-34.502 50.805-6.825 16.303-10.995 33.744-12.133 51.185h22.37c5.687-70.521 65.213-126.635 137.63-126.635zM160 318.199c-72.417 0-131.943-56.114-137.63-127.014h-22.37c1.137 17.82 5.308 34.882 12.133 51.185 7.962 18.957 19.716 36.398 34.502 50.805 14.787 14.787 31.848 26.161 50.806 34.503 19.716 8.341 40.569 12.512 62.559 12.512 21.991 0 42.464-4.171 62.559-12.512 18.957-7.962 36.398-19.716 50.806-34.503 14.787-14.787 26.161-31.848 34.502-50.805 6.825-16.303 10.995-33.744 12.133-51.185h-22.37c-5.687 70.9-65.213 127.014-137.63 127.014z" fill="#76abae" fill-rule="nonzero" stroke="none" stroke-width="1" stroke-linecap="butt" stroke-linejoin="miter" stroke-miterlimit="10" stroke-dasharray="" stroke-dashoffset="0" font-family="none" font-weight="none" font-size="none" text-anchor="none" style="mix-blend-mode: normal" data-fill-palette-color="tertiary"></path></g><g transform="matrix(1,0,0,1,56,121.60913364674279)"><svg viewBox="0 0 208 116.78173270651442" height="116.78173270651442" width="208"><g><svg viewBox="0 0 208 116.78173270651442" height="116.78173270651442" width="208"><g><svg viewBox="0 0 208 116.78173270651442" height="116.78173270651442" width="208"><g id="textblocktransform"><svg viewBox="0 0 208 116.78173270651442" height="116.78173270651442" width="208" id="textblock"><g><svg viewBox="0 0 208 116.78173270651442" height="116.78173270651442" width="208"><g transform="matrix(1,0,0,1,0,0)"><svg width="208" viewBox="-2.25 -35 74.45 41.8" height="116.78173270651442" data-palette-color="#76abae"><path d="M12.2-34.45L7.95-4.4Q7.45-1 6.25 1.15 5.05 3.3 3.25 4.55 1.45 5.8-1.25 6.8L-1.25 6.8-2.25 3.65Q-0.15 2.6 0.95 1.53 2.05 0.45 2.6-0.98 3.15-2.4 3.5-4.85L3.5-4.85 7.7-34.45 12.2-34.45ZM30.45-35Q32.95-35 34.75-34.13 36.55-33.25 38.05-31.5L38.05-31.5 35.45-29Q34.2-30.2 33.02-30.75 31.85-31.3 30.4-31.3L30.4-31.3Q26.8-31.3 24.45-28.28 22.1-25.25 21.02-20.75 19.95-16.25 19.95-11.7L19.95-11.7Q19.95-7.4 21.4-5.33 22.85-3.25 25.35-3.25L25.35-3.25Q27.1-3.25 28.45-3.93 29.8-4.6 31.7-6L31.7-6 33.5-3.05Q29.55 0.6 24.8 0.6L24.8 0.6Q20.5 0.6 17.87-2.7 15.25-6 15.25-11.95L15.25-11.95Q15.25-17.5 16.9-22.8 18.55-28.1 21.97-31.55 25.4-35 30.45-35L30.45-35ZM68.05-34.45L72.2-34.45 61.9 0 56.15 0 55.4-29.2 46.6 0 40.85 0 40.25-34.45 44.5-34.45 44.45-4.1 53.7-34.45 58.65-34.45 59.45-4.1 68.05-34.45Z" opacity="1" transform="matrix(1,0,0,1,0,0)" fill="#76abae" class="wordmark-text-0" data-fill-palette-color="primary" id="text-0"></path></svg></g></svg></g></svg></g></svg></g><g></g></svg></g></svg></g></svg></g><defs></defs></svg><rect width="320" height="360" fill="none" stroke="none" visibility="hidden"></rect></g></svg></g></svg>